<svg width="117" height="117" viewBox="0 0 117 117" fill="none" xmlns="http://www.w3.org/2000/svg">
<path d="M116.955 59.35C117.23 56.7305 116.23 54.2701 114.462 52.5901C115.525 51.0493 116.064 49.1307 115.854 47.1201C115.58 44.5007 114.095 42.3037 112.018 41.0288C112.737 39.2991 112.869 37.3109 112.248 35.3873C111.436 32.8822 109.529 31.0431 107.234 30.2329C107.58 28.3889 107.298 26.4181 106.291 24.666C104.98 22.3845 102.732 20.9829 100.318 20.6697C100.276 18.7958 99.5929 16.9245 98.2448 15.4234C96.4911 13.465 94.0027 12.5654 91.5761 12.7642C91.1457 10.9375 90.0919 9.25254 88.4619 8.06211C86.3395 6.51381 83.7225 6.15345 81.3899 6.85428C80.5909 5.15935 79.2082 3.73034 77.3704 2.90773C74.9759 1.83659 72.3391 2.03044 70.2019 3.20099C69.0715 1.70984 67.4216 0.601427 65.4527 0.181422C62.8876 -0.36533 60.3497 0.372786 58.5019 1.96582C57.0846 0.740601 55.2442 0 53.2308 0C50.6088 0 48.2787 1.25504 46.8019 3.1985C45.1644 2.29884 43.2103 1.95837 41.2413 2.38086C38.6763 2.92761 36.6578 4.64242 35.614 6.8518C33.8256 6.3125 31.8442 6.38955 30.0064 7.21216C27.6095 8.2833 25.9893 10.3833 25.4278 12.7642C23.5677 12.6101 21.6457 13.0972 20.0156 14.2876C17.8933 15.8359 16.7431 18.2292 16.6862 20.6747C14.8335 20.9133 13.055 21.7906 11.7069 23.2941C9.95313 25.2525 9.32237 27.8297 9.77008 30.2354C8.0089 30.8542 6.45055 32.0869 5.44381 33.839C4.13281 36.1204 4.04871 38.7747 4.98619 41.0313C3.39074 42.0055 2.1218 43.5364 1.50093 45.46C0.689598 47.9651 1.1571 50.5795 2.5423 52.5926C1.18431 53.8799 0.259196 55.642 0.0489428 57.6525C-0.225624 60.272 0.7737 62.7324 2.5423 64.4124C1.47867 65.9532 0.939429 67.8718 1.14968 69.8824C1.42425 72.5018 2.90839 74.6988 4.98619 75.9737C4.26638 77.7034 4.13528 79.6916 4.75615 81.6152C5.56748 84.1203 7.47461 85.9594 9.77008 86.7696C9.42378 88.6136 9.70577 90.5844 10.7125 92.3365C12.0235 94.618 14.272 96.0196 16.6862 96.3328C16.7282 98.2066 17.4109 100.078 18.759 101.582C20.5128 103.54 23.0012 104.44 25.4278 104.241C25.8582 106.067 26.9119 107.752 28.542 108.943C30.6644 110.491 33.2814 110.852 35.614 110.151C36.4129 111.846 37.7957 113.275 39.6335 114.097C42.0279 115.168 44.6648 114.975 46.8019 113.804C47.9324 115.295 49.5822 116.404 51.5512 116.824C54.1163 117.37 56.6542 116.632 58.5019 115.039C59.9168 116.262 61.7596 117.002 63.7706 117.002C66.3926 117.002 68.7227 115.747 70.1995 113.804C71.837 114.704 73.7911 115.044 75.7601 114.622C78.3251 114.075 80.3436 112.36 81.3874 110.151C83.1758 110.69 85.1572 110.613 86.995 109.79C89.3919 108.719 91.0121 106.619 91.5736 104.238C93.4337 104.392 95.3557 103.905 96.9858 102.715C99.1081 101.167 100.258 98.7733 100.315 96.3278C102.168 96.0892 103.946 95.2119 105.295 93.7084C107.048 91.75 107.679 89.1728 107.231 86.7671C108.993 86.1483 110.551 84.9156 111.558 83.1635C112.869 80.882 112.953 78.2278 112.015 75.9712C113.611 74.997 114.88 73.4661 115.5 71.5425C116.312 69.0374 115.844 66.4229 114.459 64.4099C115.817 63.1225 116.742 61.3605 116.952 59.35H116.955Z" fill="#FFB03A"/>
<path d="M51.6408 81.6947L31.167 61.1344L37.6379 54.628L51.4379 68.4882L80.7819 37.1469L87.4507 43.4494L51.6408 81.6947Z" fill="white"/>
</svg>
