<svg width="20" height="20" viewBox="0 0 20 20" fill="none" xmlns="http://www.w3.org/2000/svg">
<path fill-rule="evenodd" clip-rule="evenodd" d="M9.98932 0.105106H14.8665C17.3051 0.105106 19.294 2.04078 19.294 4.4023V15.1646C19.294 17.5358 17.3051 19.4618 14.8466 19.4618H9.97933C7.54072 19.4618 5.54186 17.5358 5.54186 15.1743V10.5287H11.7383L10.1392 12.0772C9.83941 12.3676 9.83941 12.8418 10.1392 13.1322C10.2892 13.2774 10.489 13.3451 10.6889 13.3451C10.8788 13.3451 11.0787 13.2774 11.2286 13.1322L14.147 10.3158C14.2969 10.1803 14.3768 9.98671 14.3768 9.78347C14.3768 9.5899 14.2969 9.39633 14.147 9.26084L11.2286 6.44443C10.9288 6.15408 10.4391 6.15408 10.1392 6.44443C9.83941 6.73478 9.83941 7.20902 10.1392 7.49937L11.7383 9.03823H5.54186V4.41198C5.54186 2.04078 7.54072 0.105106 9.98932 0.105106ZM0.904942 9.78339C0.904942 9.3769 1.24875 9.03816 1.66131 9.03816H5.54138V10.5286H1.66131C1.24875 10.5286 0.904942 10.1996 0.904942 9.78339Z" fill="#FFB03A"/>
</svg>
