<svg width="179" height="150" viewBox="0 0 179 150" fill="none" xmlns="http://www.w3.org/2000/svg">
<g clip-path="url(#clip0_173_318)">
<path fill-rule="evenodd" clip-rule="evenodd" d="M89.9954 43.8023L101.69 43.6798L101.536 41.6671C99.7682 40.7991 97.0555 41.2751 94.9588 41.2856C92.0501 41.3031 90.4085 40.9846 89.999 43.7988L89.9954 43.8023ZM85.9912 49.3607C89.8764 49.0142 99.6212 48.4471 103.422 49.1262C103.401 46.977 103.646 46.2 101.368 46.053L89.5404 46.186C86.9467 46.2105 85.7776 46.809 85.9912 49.3572V49.3607ZM93.8212 53.8795C98.0005 53.848 100.605 53.2915 103.44 54.8001C103.566 50.0923 103.93 51.0513 89.5649 51.3068C86.2117 51.3664 84.353 53.974 86.6912 55.4056C88.9699 56.7952 86.5092 53.9425 93.8247 53.8795H93.8212ZM64.9966 22.7412L91.8576 35.6887C86.5162 35.7027 81.4303 36.1962 78.8016 40.288C77.356 41.7266 76.6945 42.7837 75.7004 44.6949C74.3668 47.2606 74.9198 47.033 73.0087 49.0877C68.3849 54.0721 62.1019 84.8918 68.0908 87.6045C71.5806 89.1831 80.2892 79.7954 81.8749 80.086C81.8504 73.6105 82.2004 65.3254 88.5253 64.5483L88.5568 64.5448C88.6864 64.5308 88.8124 64.5133 88.9454 64.5028L96.2819 63.7538C96.5514 63.6943 96.8525 63.6173 97.185 63.5158C101.343 62.2277 102.453 57.3203 101.123 56.3962C99.1591 55.7767 95.7849 56.1652 93.3837 56.1897C90.58 56.2142 89.2464 56.4347 89.3934 59.466L99.7507 59.4414C98.6481 62.5847 96.4709 61.7236 92.6206 61.7796C88.3468 61.8426 87.1497 62.6372 86.9607 58.0763C84.115 56.8933 84.9096 56.9143 83.2995 54.7021C79.8167 54.4256 74.2268 52.84 75.0389 49.8472C76.9395 49.1927 77.1145 50.4353 78.9626 51.3384C80.0547 51.8739 81.5808 52.3534 82.7744 52.1469C85.8966 51.6079 81.7418 48.4156 84.7976 45.3004C85.5011 44.5829 86.8137 44.2363 87.3213 43.6098C87.9898 42.7907 87.5768 42.0452 88.5603 40.7046C90.895 37.5158 95.3788 39.875 98.1301 38.7129L122.506 50.4633C127.214 52.7875 127.238 55.5912 123.073 58.8219L96.3309 76.5997L69.6205 94.3565C65.1961 97.2372 62.7284 95.8756 62.0039 90.7197L59.9702 59.0739L57.9401 27.4666C57.6566 22.2582 60.1033 20.8231 64.9861 22.7447L64.9966 22.7412Z" fill="#00A3D4"/>
<path fill-rule="evenodd" clip-rule="evenodd" d="M87.5067 33.914C92.7501 33.8825 98.9526 34.439 104.192 33.935C104.462 36.4692 103.982 37.6348 102.922 39.7769C104.15 40.897 104.956 41.17 105.131 43.3262C105.442 47.1345 105.873 44.8068 106.478 47.376C106.975 49.4866 106.422 55.8046 105.411 57.3202C104.588 58.5593 104.836 57.6632 104.231 59.1193C103.433 61.0305 103.552 62.5951 101.179 64.5692C100.202 65.3813 98.627 66.1129 97.2094 66.4909C96.8909 66.7114 95.3018 66.7919 94.9028 66.7114C93.9262 66.5294 88.9768 66.9949 87.5137 67.0894C87.2442 67.1839 86.9327 67.3099 86.5721 67.4955C85.5081 68.038 84.7205 68.8501 84.227 70.1767C82.4628 73.0469 81.9763 76.8586 82.9284 81.7275C78.5741 79.3508 71.4755 88.364 66.6277 86.4003C63.0644 83.6456 65.0526 72.1788 63.7365 72.9279C62.9349 66.3999 65.6301 53.1024 72.1301 46.4589C74.6538 43.8792 73.2152 44.6668 75.5078 41.3905C79.3161 35.9511 82.4278 34.1205 87.5067 33.907V33.914Z" fill="white"/>
<path fill-rule="evenodd" clip-rule="evenodd" d="M91.035 43.9213L102.715 44.4673L102.677 42.4512C100.965 41.4851 98.228 41.8036 96.1314 41.6986C93.2261 41.5516 91.6055 41.1386 91.035 43.9248V43.9213ZM86.7122 49.2417C90.6114 49.1157 100.374 49.1052 104.129 50.0012C104.231 47.8521 104.521 47.0925 102.257 46.816L90.4434 46.277C87.8532 46.1544 86.6492 46.683 86.7157 49.2417H86.7122ZM94.2692 54.198C98.445 54.4045 101.074 53.9985 103.818 55.6646C104.213 50.9708 104.525 51.9474 90.1669 51.3873C86.8172 51.2543 84.808 53.7535 87.0587 55.3146C89.2498 56.8337 86.9607 53.8445 94.2657 54.198H94.2692ZM101.756 36.3257C100.045 42.9552 93.2191 36.5847 89.7889 40.7465C88.7318 42.0311 89.0993 42.8012 88.3853 43.5783C87.8427 44.1733 86.5091 44.4463 85.7671 45.1219C82.5364 48.0586 86.4986 51.4818 83.3519 51.8424C82.1513 51.9789 80.6532 51.4153 79.5926 50.8203C77.8005 49.8122 77.6955 48.5626 75.7599 49.1087C74.7763 52.0524 80.2682 53.953 83.7264 54.4256C85.207 56.7287 84.4125 56.6622 87.1882 58.0028C87.1112 62.5672 88.3538 61.8426 92.6241 62.0211C96.4709 62.1821 98.5955 63.1657 99.8766 60.0925L89.5334 59.5254C89.5649 56.4942 90.909 56.3472 93.7092 56.4837C96.1068 56.5992 99.5021 56.3997 101.427 57.1313C102.701 58.1288 101.305 62.9627 97.0834 64.0128C96.7439 64.0968 96.4394 64.1563 96.1664 64.1983L88.7983 64.5308C88.6653 64.5308 88.5358 64.5413 88.4098 64.5483H88.3748C82.0148 64.9648 81.1852 73.2184 80.8317 79.6834C79.2636 79.3019 70.0264 88.1785 66.6347 86.4039C60.8138 83.3552 68.8748 52.9449 73.7787 48.2336C75.8054 46.2875 75.2418 46.487 76.7189 44.0018C77.825 42.1466 78.5426 41.1281 80.0722 39.777C84.4545 33.7565 94.0907 36.4692 101.763 36.3292L101.756 36.3257ZM94.7523 66.6835L94.9063 66.7115C95.3788 66.806 96.0298 66.757 96.7474 66.6029C96.9609 66.6029 97.1114 66.5609 97.2129 66.4909C98.6305 66.1129 100.206 65.3814 101.182 64.5693C103.559 62.5952 103.436 61.0305 104.234 59.1194C104.84 57.6633 104.588 58.5559 105.414 57.3203C106.426 55.8012 106.975 49.4867 106.482 47.376C105.876 44.8103 105.446 47.1345 105.134 43.3297C104.959 41.1736 104.157 40.8971 102.925 39.7805C103.989 37.6348 104.469 36.4692 104.196 33.9385C98.6865 34.4706 88.8263 33.683 88.9208 33.9C82.9844 33.837 79.6591 35.4752 75.5113 41.4011C73.2187 44.6773 74.6573 43.8933 72.1336 46.4695C65.6301 53.113 62.9349 66.4104 63.74 72.9384C68.6893 103.062 60.8838 81.9761 82.9354 81.7381L83.0159 79.2844C83.1069 76.2882 83.2609 72.8124 84.234 70.1872C84.724 68.8606 85.5151 68.0486 86.5756 67.506C86.9397 67.3205 87.2512 67.191 87.5172 67.1C87.5522 67.1 91.931 66.8305 94.7523 66.694V66.6835Z" fill="#623116"/>
<path fill-rule="evenodd" clip-rule="evenodd" d="M123.059 58.8218L69.6065 94.3529C65.1822 97.2337 62.7145 95.8721 61.99 90.7162L57.9297 27.463L67.6324 78.5143C68.357 83.6667 70.8246 85.0317 75.249 82.151L123.059 58.8218Z" fill="#623116"/>
<path fill-rule="evenodd" clip-rule="evenodd" d="M105.582 21.8555L107.318 21.7505C107.318 20.1788 107.171 18.3622 107.556 17.0216C105.074 18.8207 105.452 19.8988 105.582 21.8555ZM104.868 25.2297C107.43 25.7127 109.408 24.7992 111.277 23.6896C109.243 23.4796 107.829 22.8215 105.673 23.1751L104.868 25.2332V25.2297ZM101.802 25.0617C103.559 25.0617 103.912 24.7922 104.168 23.1891C104.357 21.9955 104.29 20.4764 104.112 19.1253C100.317 22.5625 101.518 23.0771 101.798 25.0582L101.802 25.0617ZM101.087 28.1909C102.999 29.374 105.312 28.5095 106.674 27.1374C105.347 26.5913 103.597 26.2903 101.907 26.3848L101.087 28.1909ZM97.6152 27.8619L99.7959 27.7359C101.01 25.5727 100.457 25.1632 100.023 22.3805C99.1624 22.923 98.7318 23.7281 98.1123 24.5402C97.1007 25.8703 97.1742 25.7233 97.6152 27.8654V27.8619ZM97.3002 31.9012C98.3503 32.3632 99.1554 32.5068 100.303 31.8662C100.979 31.4917 102.306 30.5991 102.74 30.1406C100.408 29.696 100.884 28.8875 97.9023 29.1115C97.8078 29.6435 97.7938 30.0531 97.6957 30.5396C97.5592 31.2222 97.3877 31.3587 97.2967 31.9012H97.3002ZM95.9316 26.5073L96.0996 26.4338C96.4952 29.171 97.2722 31.5302 94.2165 32.3842C94.1535 29.395 93.968 26.9903 95.7391 25.6077C95.7881 25.8983 95.8511 26.1958 95.9281 26.5108L95.9316 26.5073ZM101.903 19.5628C101.816 19.6643 101.725 19.7658 101.63 19.8743C100.139 21.5719 100.188 19.6328 98.1228 22.2965C97.4332 23.1856 97.1357 23.4271 96.9502 23.4551C96.9467 23.1751 96.9467 22.86 96.9572 22.5065C96.9992 21.2779 96.8942 20.9279 99.0118 19.6958C99.5824 19.3633 100.142 19.8778 101.231 19.7168C101.473 19.6818 101.697 19.6293 101.903 19.5698V19.5628ZM99.8939 18.3657C101.024 18.5652 101.84 18.5162 102.803 17.6237C103.366 17.1021 104.441 15.919 104.756 15.3695C102.386 15.4885 102.649 14.5924 99.8099 15.513C99.8449 16.052 99.9324 16.4511 99.9534 16.9516C99.9849 17.6482 99.8519 17.8162 99.8939 18.3692V18.3657ZM102.68 13.8714C104.822 14.5679 106.863 13.1818 107.85 11.5297C106.432 11.3127 104.658 11.4317 103.041 11.9252L102.68 13.8749V13.8714ZM105.638 10.1016C108.242 9.96509 109.943 8.61049 111.49 7.09138C109.467 7.3679 107.934 7.06338 105.925 7.91394L105.638 10.1016ZM105.522 6.65385L107.181 6.14281C106.807 4.6167 106.226 2.88407 106.278 1.49097C104.297 3.82564 104.927 4.78121 105.522 6.65385ZM102.621 10.6616C104.329 10.2451 104.605 9.90209 104.469 8.28497C104.367 7.08088 103.937 5.62127 103.44 4.35418C100.58 8.58949 101.872 8.803 102.621 10.6616ZM99.2289 14.3684L101.315 13.7314C101.977 11.3407 101.34 11.0782 100.247 8.47398C99.5404 9.20553 99.3164 10.0876 98.9103 11.0222C98.2453 12.5553 98.2803 12.3908 99.2254 14.3684H99.2289ZM97.0167 19.5628C100.111 17.8267 98.0808 15.387 97.0587 12.3978C95.4136 14.1899 96.2011 16.5491 97.0167 19.5628ZM79.0324 24.5087C76.5297 25.2297 74.4715 24.5052 72.5044 23.5776C74.51 23.1786 75.8541 22.391 78.0348 22.538L79.0324 24.5087ZM83.0787 27.1024C81.2865 28.4605 78.9029 27.8164 77.4188 26.5773C78.6858 25.9088 80.401 25.4432 82.0916 25.3802L83.0787 27.1024ZM87.202 30.4381C86.2009 30.9981 85.4133 31.2152 84.2058 30.6866C83.4987 30.3786 82.0916 29.612 81.6156 29.1955C83.8907 28.5375 83.3447 27.7744 86.3304 27.7149C86.4774 28.2364 86.5264 28.6425 86.6734 29.1185C86.873 29.7871 87.0585 29.9026 87.202 30.4346V30.4381ZM90.3172 30.6306C86.8204 30.0006 87.923 27.0358 87.8985 23.8786C90.0477 25.0337 90.0862 27.5189 90.3172 30.6306ZM86.5019 26.4513L84.3178 26.5318C82.9002 24.4912 83.4112 24.0326 83.5792 21.2219C84.4893 21.6805 84.9968 22.44 85.6864 23.1926C86.8239 24.4247 86.7364 24.2811 86.5019 26.4548V26.4513ZM82.0671 24.0571C80.317 24.2216 79.9389 23.9871 79.5329 22.4155C79.2284 21.2464 79.1514 19.7238 79.1969 18.3657C83.3027 21.4319 82.1581 22.055 82.0671 24.0536V24.0571ZM77.9963 21.2184L76.2567 21.2779C76.1027 19.7133 76.0782 17.8897 75.5671 16.5911C78.2098 18.1487 77.9368 19.2583 77.9963 21.2184ZM83.2292 12.8983C80.6215 12.9088 78.8434 11.6522 77.2087 10.2241C79.2459 10.3851 80.758 9.99309 82.8127 10.7316L83.2257 12.8983H83.2292ZM86.4004 16.4931C84.3038 17.3121 82.1861 16.045 81.1045 14.4489C82.5081 14.1514 84.2863 14.1689 85.9279 14.5679L86.4004 16.4931ZM89.4421 20.8229C88.3256 21.0889 87.5065 21.0819 86.4949 20.2488C85.8999 19.7588 84.7588 18.6422 84.4158 18.1102C86.7889 18.0962 86.4739 17.2141 89.3616 17.9702C89.3581 18.5127 89.2951 18.9152 89.3021 19.4123C89.3126 20.1088 89.4561 20.2734 89.4456 20.8229H89.4421ZM87.979 22.2195C88.0455 22.2265 88.1155 22.237 88.1856 22.244C89.2811 22.342 89.8097 21.7995 90.3977 22.097C92.5819 23.2066 92.4944 23.5601 92.6099 24.7852C92.8759 27.6169 92.2564 27.9634 92.9039 28.3309C92.6799 29.9516 93.1804 31.4042 92.7184 33.2523C92.5399 32.8323 92.3439 32.4087 92.1303 31.9537C90.5727 28.6285 92.7639 26.4128 88.9626 23.0246C88.5496 22.657 88.2311 22.398 87.9755 22.2195H87.979ZM92.3824 21.8555C89.1936 20.2979 91.0768 17.7497 91.9238 14.7044C93.6705 16.3986 93.0194 18.7997 92.3824 21.8555ZM89.8727 16.7976L87.7515 16.2796C86.9535 13.9309 87.573 13.6299 88.5111 10.9697C89.2601 11.6592 89.5366 12.5273 89.9952 13.4373C90.7477 14.9285 90.6987 14.7709 89.8727 16.7941V16.7976ZM86.2709 13.2903C84.5418 12.9718 84.2443 12.6428 84.2863 11.0222C84.3178 9.81458 84.6643 8.33047 85.0878 7.03538C88.1855 11.1027 86.9115 11.3897 86.2709 13.2868V13.2903ZM83.1417 9.45405L81.4546 9.03752C81.7416 7.49041 82.2211 5.72978 82.0881 4.34368C84.1988 6.56284 83.6282 7.55341 83.1417 9.45405ZM85.7179 21.2289C86.0679 21.5124 86.4529 21.7645 86.915 21.95C86.7399 22.0515 86.5649 22.0935 85.7179 21.2289Z" fill="#FBE116"/>
<path fill-rule="evenodd" clip-rule="evenodd" d="M101.087 28.1947C102.999 29.3778 105.312 28.5132 106.674 27.1411C105.347 26.595 103.597 26.294 101.906 26.3885L101.087 28.1947ZM104.868 25.2334C107.43 25.7165 109.408 24.8029 111.277 23.6933C109.243 23.4833 107.829 22.8253 105.673 23.1788L104.868 25.2369V25.2334ZM105.582 21.8592L107.318 21.7542C107.318 20.1826 107.171 18.3659 107.556 17.0253C105.074 18.8245 105.452 19.9026 105.582 21.8592ZM101.801 25.0689C103.559 25.0689 103.912 24.7994 104.168 23.1963C104.357 22.0027 104.29 20.4836 104.112 19.1325C100.317 22.5697 101.518 23.0843 101.798 25.0654L101.801 25.0689ZM97.6151 27.8691L99.7958 27.7431C101.01 25.58 100.457 25.1704 100.023 22.3877C99.1623 22.9303 98.7317 23.7353 98.1122 24.5474C97.1006 25.8775 97.1741 25.7305 97.6151 27.8726V27.8691ZM97.3001 31.9084C98.3502 32.3705 99.1553 32.514 100.303 31.8734C100.979 31.4989 102.305 30.6063 102.74 30.1478C100.408 29.7033 100.884 28.8947 97.9022 29.1187C97.8077 29.6508 97.7936 30.0603 97.6956 30.5468C97.5591 31.2294 97.3876 31.3659 97.2966 31.9084H97.3001ZM102.68 13.8786C104.822 14.5752 106.863 13.1891 107.85 11.5369C106.432 11.3199 104.658 11.4389 103.041 11.9325L102.68 13.8821V13.8786ZM105.638 10.1088C108.242 9.97232 109.943 8.61772 111.49 7.09861C109.467 7.37513 107.934 7.07061 105.925 7.92117L105.638 10.1088ZM105.522 6.66108L107.181 6.15004C106.807 4.62393 106.226 2.8913 106.278 1.4982C104.297 3.83287 104.927 4.78844 105.522 6.66108ZM102.621 10.6689C104.329 10.2523 104.605 9.90932 104.469 8.2922C104.367 7.08811 103.937 5.6285 103.44 4.36141C100.58 8.59672 101.871 8.81024 102.621 10.6689ZM99.2288 14.3756L101.315 13.7386C101.976 11.3479 101.339 11.0854 100.247 8.48121C99.5403 9.21277 99.3163 10.0948 98.9102 11.0294C98.2452 12.5625 98.2802 12.398 99.2253 14.3756H99.2288ZM97.0166 19.57C100.111 17.8339 98.0807 15.3942 97.0586 12.405C95.4135 14.1971 96.201 16.5563 97.0166 19.57ZM99.8938 18.3729C101.024 18.5725 101.84 18.5235 102.803 17.6309C103.366 17.1093 104.441 15.9263 104.756 15.3767C102.386 15.4957 102.649 14.5997 99.8098 15.5202C99.8448 16.0593 99.9323 16.4583 99.9533 16.9588C99.9848 17.6554 99.8518 17.8234 99.8938 18.3764V18.3729ZM95.9315 26.5145L96.0995 26.441C96.4951 29.1782 97.2721 31.5374 94.2164 32.3915C94.1534 29.4023 93.9679 26.9976 95.739 25.615C95.788 25.9055 95.851 26.203 95.928 26.518L95.9315 26.5145ZM101.903 19.57C101.815 19.6715 101.724 19.773 101.63 19.8815C100.139 21.5792 100.188 19.64 98.1227 22.3037C97.4331 23.1928 97.1356 23.4343 96.9501 23.4623C96.9466 23.1823 96.9466 22.8673 96.9571 22.5137C96.9991 21.2852 96.8941 20.9351 99.0117 19.703C99.5823 19.3705 100.142 19.885 101.231 19.724C101.472 19.689 101.696 19.6365 101.903 19.577V19.57ZM86.4003 16.4968C84.3037 17.3159 82.186 16.0488 81.1044 14.4527C82.508 14.1551 84.2862 14.1726 85.9278 14.5717L86.4003 16.4968ZM83.2291 12.902C80.6214 12.9125 78.8433 11.6559 77.2086 10.2278C79.2458 10.3889 80.7579 9.99682 82.8126 10.7354L83.2291 12.902ZM83.1451 9.45428L81.458 9.03775C81.745 7.49064 82.2245 5.73001 82.0915 4.34391C84.2022 6.56307 83.6316 7.55364 83.1451 9.45428ZM86.2743 13.2906C84.5452 12.972 84.2477 12.643 84.2897 11.0224C84.3212 9.81481 84.6677 8.3307 85.0912 7.03561C88.1889 11.1029 86.9149 11.3899 86.2743 13.2871V13.2906ZM89.8761 16.7978L87.7549 16.2798C86.9569 13.9311 87.5764 13.6301 88.5145 10.9699C89.2635 11.6594 89.54 12.5275 89.9986 13.4376C90.7511 14.9287 90.7021 14.7712 89.8761 16.7943V16.7978ZM92.3858 21.8557C89.197 20.2981 91.0802 17.7499 91.9272 14.7047C93.6739 16.3988 93.0228 18.8 92.3858 21.8557ZM89.442 20.8231C88.3255 21.0891 87.5064 21.0821 86.4948 20.2491C85.8998 19.759 84.7587 18.6425 84.4157 18.1104C86.7888 18.0964 86.4738 17.2144 89.3615 17.9704C89.358 18.513 89.295 18.9155 89.302 19.4125C89.3125 20.1091 89.456 20.2736 89.4455 20.8231H89.442ZM83.0751 27.1061C81.2829 28.4642 78.8993 27.8201 77.4152 26.581C78.6822 25.9125 80.3974 25.447 82.088 25.384L83.0751 27.1061ZM79.0288 24.5124C76.5261 25.2334 74.4679 24.5089 72.5008 23.5813C74.5064 23.1823 75.8505 22.3947 78.0312 22.5417L79.0288 24.5124ZM77.9927 21.2186L76.2531 21.2782C76.0991 19.7135 76.0746 17.8899 75.5635 16.5913C78.2062 18.1489 77.9332 19.2585 77.9927 21.2186ZM82.0635 24.0574C80.3134 24.2219 79.9353 23.9874 79.5293 22.4157C79.2248 21.2467 79.1478 19.724 79.1933 18.3659C83.2991 21.4322 82.1545 22.0552 82.0635 24.0539V24.0574ZM86.4983 26.4515L84.3142 26.532C82.8966 24.4914 83.4076 24.0329 83.5756 21.2221C84.4857 21.6807 84.9932 22.4402 85.6828 23.1928C86.8203 24.4249 86.7328 24.2814 86.4983 26.455V26.4515ZM90.3136 30.6308C86.8168 30.0008 87.9194 27.0361 87.8949 23.8788C90.0441 25.0339 90.0826 27.5191 90.3136 30.6308ZM87.1984 30.4383C86.1973 30.9984 85.4097 31.2154 84.2022 30.6868C83.4951 30.3788 82.088 29.6123 81.612 29.1957C83.8871 28.5377 83.3411 27.7746 86.3268 27.7151C86.4738 28.2367 86.5228 28.6427 86.6698 29.1187C86.8694 29.7873 87.0549 29.9028 87.1984 30.4348V30.4383ZM87.9789 22.2162C88.0454 22.2232 88.1154 22.2337 88.1854 22.2407C89.281 22.3387 89.8096 21.7962 90.3976 22.0937C92.5818 23.2033 92.4943 23.5568 92.6098 24.7819C92.8758 27.6136 92.2563 27.9601 92.9038 28.3277C92.6798 29.9483 93.1803 31.4009 92.7183 33.249C92.5398 32.829 92.3438 32.4055 92.1302 31.9504C90.5726 28.6252 92.7638 26.4095 88.9625 23.0213C88.5495 22.6538 88.2309 22.3947 87.9754 22.2162H87.9789ZM85.7213 21.2256C86.0713 21.5092 86.4563 21.7612 86.9184 21.9467C86.7433 22.0482 86.5683 22.0902 85.7213 21.2256ZM91.7732 35.5207C91.8012 35.5137 91.8257 35.5102 91.8537 35.5067C91.9832 35.6537 92.4838 35.5557 92.9668 35.6012C92.9493 36.1647 93.2118 35.8812 93.0928 35.6117L93.4743 35.6432C93.4253 35.1077 93.5163 35.8112 93.4148 35.3597L93.4533 35.2232C93.7894 34.0401 93.7719 33.6761 96.124 32.976C96.7576 32.787 97.1776 33.4205 98.2732 33.5186C100.398 33.7111 101.458 32.521 102.824 31.7124C107.524 28.9367 102.186 31.1944 108.228 27.8026C108.634 27.5751 108.935 27.4596 109.162 27.1201L109.474 26.315C109.901 25.1249 113.951 24.6314 113.16 22.9758C112.253 22.0867 110.377 22.7203 108.637 21.8172C108.588 21.0086 108.693 16.3148 108.672 16.2588C108.098 14.7082 106.467 16.1748 105.844 16.7908C105.2 17.4314 105.697 17.1654 104.987 17.3089C104.903 17.3264 104.819 17.3474 104.738 17.3649C104.892 17.1969 105.046 17.0323 105.211 16.8713C109.106 13.063 104.469 16.5178 109.52 11.7995C109.856 11.4844 110.125 11.2989 110.262 10.9174L110.37 10.0633C110.5 8.80674 114.311 7.37163 113.149 5.95053C112.054 5.29948 110.384 6.36006 108.48 5.89102C108.238 5.11746 107.213 0.535628 107.178 0.483124C106.247 -0.885477 105.015 0.924156 104.56 1.66971C104.091 2.44327 104.507 2.06524 103.853 2.37676C102.428 3.05231 102.071 3.97988 101.203 5.653C100.16 7.65165 99.7433 5.75801 98.3782 8.83124C97.0026 11.9255 97.6851 8.44271 95.753 11.929C93.2923 16.3708 96.096 17.7499 95.7285 21.3972C95.6375 22.3037 95.564 23.0983 95.578 23.9138C95.3715 24.1029 95.123 24.3514 94.8219 24.6734C94.5139 25.0059 94.2514 25.3279 94.0274 25.636C93.9749 24.9849 93.8769 24.3269 93.7579 23.6058C93.1803 19.9866 95.9 18.4499 93.1873 14.1551C91.0592 10.7879 91.9412 14.2251 90.3906 11.2114C88.8505 8.22219 88.539 10.1368 87.3839 8.19769C86.4213 6.58057 86.0118 5.67401 84.5487 5.07896C83.8766 4.80594 84.3177 5.15947 83.8031 4.41391C83.3061 3.69636 81.969 1.96023 81.1219 3.37784C81.0904 3.42684 80.3309 8.06118 80.1349 8.84874C78.2622 9.42628 76.5331 8.46371 75.476 9.17426C74.3944 10.6584 78.2832 11.8765 78.4862 13.1226L78.6437 13.9696C78.8048 14.3406 79.0813 14.5122 79.4383 14.8097C84.7517 19.234 79.9213 16.0488 84.0306 19.6295C84.1672 19.7485 84.3002 19.8745 84.4297 19.9971C83.1661 19.0625 83.0786 20.1336 81.7275 18.8595C80.3519 17.5679 79.7078 16.8048 78.1397 16.6333C77.4187 16.5528 77.9402 16.7733 77.2366 16.1958C76.5611 15.6392 74.7935 14.3336 74.3734 15.9298C74.3594 15.9858 74.9125 20.6481 74.9405 21.4602C73.2989 22.5242 71.3702 22.0692 70.5511 23.0388C69.9246 24.7609 73.9989 24.8694 74.5414 26.014L74.9265 26.7876C75.1855 27.0991 75.497 27.1866 75.924 27.3756C82.2595 30.1828 76.7326 28.4362 81.675 30.7603C83.1101 31.4359 84.2792 32.5245 86.3758 32.129C87.4574 31.9259 87.8144 31.2609 88.4655 31.3869C90.8736 31.8594 90.8876 32.2235 91.3392 33.3715C92.0707 35.2337 91.5982 34.9922 91.7662 35.3667V35.5067L91.7732 35.5207Z" fill="#623116"/>
<path fill-rule="evenodd" clip-rule="evenodd" d="M178.058 128.701H172.328L171.208 125.078H163.35L162.205 128.701H156.476L163.791 108.315H170.743L178.055 128.701H178.058ZM170.042 121.158L167.309 112.498L164.554 121.158H170.042ZM154.977 108.315L147.802 119.485V128.701H142.509V119.485L135.334 108.315H141.722L145.156 115.018L148.586 108.315H154.974H154.977ZM131.186 108.315L122.786 128.701H118.561L110.153 108.315H115.964L120.678 121.161L125.379 108.315H131.186ZM108.214 128.701H102.484L101.364 125.078H93.5059L92.3613 128.701H86.6314L93.9469 108.315H100.898L108.21 128.701H108.214ZM100.198 121.158L97.4647 112.498L94.71 121.158H100.198ZM83.8487 112.992H79.6729V128.701H74.328V112.992H70.1277V108.315H83.8487V112.992ZM65.8643 128.701H59.5639L54.8455 120.78V128.701H49.5006V108.315H55.7661C59.1088 108.315 61.454 108.833 62.8051 109.866C64.1562 110.902 64.8318 112.54 64.8318 114.773C64.8318 116.342 64.4397 117.616 63.6592 118.61C62.8786 119.6 61.734 120.255 60.2394 120.57L65.8678 128.704L65.8643 128.701ZM59.2629 115.449C59.2629 114.448 59.0073 113.727 58.4998 113.293C57.9853 112.855 57.1277 112.638 55.9061 112.638H54.842V118.046H55.8151C56.9912 118.046 57.8663 117.833 58.4263 117.416C58.9863 116.993 59.2629 116.335 59.2629 115.449ZM43.9667 128.701H38.2368L37.1167 125.078H29.2586L28.1141 128.701H22.3841L29.6997 108.315H36.6512L43.9632 128.701H43.9667ZM35.9511 121.158L33.2174 112.498L30.4627 121.158H35.9511ZM18.9574 128.701H12.1634L5.34139 119.18V128.701H0V108.315H5.34489V117.504L12.2474 108.315H18.5759L10.6093 118.179L18.9574 128.701Z" fill="#623116"/>
<path d="M59.5674 142.068H0V144.344H59.5674V142.068Z" fill="#818281"/>
<path d="M178.059 142.068H118.491V144.344H178.059V142.068Z" fill="#818281"/>
<path fill-rule="evenodd" clip-rule="evenodd" d="M112.428 138.946L110.934 139.825C110.713 139.461 110.517 139.202 110.353 139.055C110.041 138.768 109.632 138.624 109.117 138.624C108.602 138.624 108.144 138.778 107.811 139.079C107.493 139.366 107.328 139.723 107.328 140.136C107.328 140.549 107.521 140.875 107.909 141.141C108.091 141.27 108.259 141.375 108.424 141.449C108.588 141.526 109.075 141.725 109.88 142.047C110.899 142.464 111.627 142.957 112.064 143.528C112.516 144.12 112.743 144.82 112.743 145.628C112.743 146.794 112.327 147.76 111.501 148.516C110.783 149.174 109.887 149.503 108.812 149.503C107.433 149.503 106.369 148.964 105.617 147.886C105.26 147.375 105.025 146.72 104.906 145.922L106.772 145.513C106.849 146.132 106.968 146.58 107.118 146.857C107.279 147.14 107.521 147.371 107.836 147.543C108.154 147.711 108.501 147.798 108.875 147.798C109.495 147.798 109.992 147.581 110.374 147.14C110.706 146.762 110.874 146.304 110.874 145.772C110.874 145.089 110.594 144.561 110.027 144.179C109.828 144.043 109.639 143.934 109.464 143.854C109.292 143.773 108.788 143.56 107.955 143.206C106.289 142.506 105.459 141.48 105.459 140.129C105.459 139.044 105.925 138.197 106.856 137.585C107.535 137.14 108.294 136.916 109.131 136.916C109.866 136.916 110.496 137.081 111.025 137.406C111.553 137.732 112.022 138.246 112.435 138.95L112.428 138.946ZM95.5745 147.557H96.4076C97.1496 147.557 97.7692 147.49 98.2662 147.354C98.7667 147.221 99.2288 146.997 99.6523 146.682C100.195 146.276 100.615 145.765 100.905 145.138C101.182 144.55 101.318 143.906 101.318 143.199C101.318 142.201 101.045 141.319 100.503 140.553C100.076 139.951 99.5333 139.517 98.8858 139.244C98.2382 138.974 97.4121 138.838 96.4076 138.838H95.5745V147.553V147.557ZM93.7194 149.265V137.13H96.2991C97.6117 137.13 98.6442 137.27 99.3968 137.55C100.737 138.043 101.752 138.901 102.442 140.129C102.943 141.029 103.195 142.051 103.195 143.195C103.195 145.299 102.376 146.937 100.744 148.103C100.121 148.547 99.4913 148.852 98.8507 149.016C98.2102 149.184 97.3491 149.265 96.2676 149.265H93.7229H93.7194ZM91.2972 138.841H86.3968V141.771H91.1502V143.483H86.3968V147.557H91.2972V149.265H84.5417V137.13H91.2972V138.841ZM82.1195 138.841H77.2192V141.771H81.9725V143.483H77.2192V147.557H82.1195V149.265H75.364V137.13H82.1195V138.841ZM72.8263 138.946L71.3317 139.825C71.1112 139.461 70.9152 139.202 70.7507 139.055C70.4392 138.768 70.0296 138.624 69.5151 138.624C69.0006 138.624 68.542 138.778 68.2095 139.079C67.8875 139.366 67.7265 139.723 67.7265 140.136C67.7265 140.549 67.919 140.875 68.3075 141.141C68.4895 141.27 68.6575 141.375 68.822 141.449C68.9866 141.526 69.4731 141.725 70.2781 142.047C71.2967 142.464 72.0248 142.957 72.4623 143.528C72.9173 144.12 73.1414 144.82 73.1414 145.628C73.1414 146.794 72.7248 147.76 71.8953 148.516C71.1812 149.174 70.2816 149.503 69.2071 149.503C67.828 149.503 66.7639 148.964 66.0113 147.886C65.6578 147.375 65.4198 146.72 65.3008 145.922L67.1664 145.513C67.2434 146.132 67.3589 146.58 67.5129 146.857C67.674 147.14 67.912 147.371 68.2305 147.543C68.549 147.711 68.892 147.798 69.2701 147.798C69.8896 147.798 70.3867 147.581 70.7682 147.14C71.1007 146.762 71.2687 146.304 71.2687 145.772C71.2687 145.089 70.9887 144.561 70.4217 144.179C70.2186 144.043 70.0331 143.934 69.8581 143.854C69.6866 143.773 69.1861 143.56 68.3495 143.206C66.6869 142.506 65.8538 141.48 65.8538 140.129C65.8538 139.044 66.3194 138.197 67.2504 137.585C67.9295 137.14 68.689 136.916 69.5256 136.916C70.2606 136.916 70.8907 137.081 71.4192 137.406C71.9478 137.732 72.4203 138.246 72.8298 138.95L72.8263 138.946Z" fill="#080606"/>
<path fill-rule="evenodd" clip-rule="evenodd" d="M115.26 35.3107C115.26 35.1777 115.229 35.0657 115.169 34.9782C115.11 34.8872 115.012 34.8207 114.875 34.7857C114.833 34.7752 114.788 34.7682 114.735 34.7612C114.683 34.7542 114.609 34.7507 114.518 34.7507H114.154V35.8848H114.567C114.683 35.8848 114.784 35.8708 114.868 35.8428C114.956 35.8148 115.029 35.7763 115.085 35.7238C115.145 35.6748 115.187 35.6153 115.215 35.5452C115.243 35.4752 115.257 35.3982 115.257 35.3107H115.26ZM116.31 38.0234C116.31 38.0444 116.307 38.0654 116.296 38.0794C116.289 38.0969 116.268 38.1074 116.24 38.1179C116.209 38.1284 116.163 38.1354 116.104 38.1389C116.044 38.1424 115.964 38.1459 115.859 38.1459C115.771 38.1459 115.705 38.1459 115.652 38.1389C115.6 38.1354 115.558 38.1284 115.53 38.1144C115.498 38.1039 115.481 38.0899 115.467 38.0724C115.453 38.0549 115.442 38.0339 115.435 38.0094L115.075 37.1134C115.033 37.0119 114.987 36.9209 114.949 36.8438C114.907 36.7668 114.861 36.7003 114.812 36.6478C114.76 36.5953 114.704 36.5568 114.637 36.5288C114.571 36.5043 114.494 36.4903 114.41 36.4903H114.154V38.0164C114.154 38.0374 114.147 38.0549 114.137 38.0724C114.123 38.0899 114.098 38.1039 114.07 38.1144C114.039 38.1249 113.997 38.1319 113.948 38.1389C113.899 38.1459 113.829 38.1494 113.752 38.1494C113.675 38.1494 113.608 38.1459 113.556 38.1389C113.503 38.1319 113.461 38.1249 113.433 38.1144C113.402 38.1039 113.381 38.0899 113.37 38.0759C113.36 38.0584 113.353 38.0409 113.353 38.0199V34.3902C113.353 34.2992 113.377 34.2327 113.423 34.1941C113.468 34.1521 113.528 34.1346 113.594 34.1346H114.63C114.735 34.1346 114.823 34.1346 114.889 34.1381C114.956 34.1416 115.019 34.1486 115.075 34.1521C115.236 34.1766 115.379 34.2152 115.509 34.2712C115.638 34.3272 115.747 34.4007 115.838 34.4882C115.925 34.5792 115.995 34.6842 116.044 34.8067C116.093 34.9292 116.114 35.0692 116.114 35.2267C116.114 35.3597 116.097 35.4822 116.065 35.5908C116.03 35.7028 115.981 35.8008 115.915 35.8848C115.848 35.9723 115.768 36.0458 115.67 36.1088C115.572 36.1753 115.463 36.2243 115.337 36.2663C115.397 36.2943 115.453 36.3293 115.505 36.3713C115.558 36.4133 115.607 36.4623 115.652 36.5218C115.698 36.5813 115.743 36.6478 115.785 36.7213C115.827 36.7983 115.866 36.8823 115.904 36.9769L116.24 37.7644C116.272 37.8449 116.293 37.9009 116.303 37.9359C116.314 37.9709 116.317 37.9989 116.317 38.0234H116.31Z" fill="#151616"/>
<path fill-rule="evenodd" clip-rule="evenodd" d="M114.707 32.3843C116.783 32.3843 118.463 34.0644 118.463 36.1401C118.463 38.2157 116.783 39.8958 114.707 39.8958C112.632 39.8958 110.952 38.2157 110.952 36.1401C110.952 34.0644 112.632 32.3843 114.707 32.3843ZM114.707 32.8953C116.496 32.8953 117.949 34.3479 117.949 36.1366C117.949 37.9252 116.496 39.3778 114.707 39.3778C112.919 39.3778 111.466 37.9252 111.466 36.1366C111.466 34.3479 112.919 32.8953 114.707 32.8953Z" fill="#151616"/>
</g>
<defs>
<clipPath id="clip0_173_318">
<rect width="178.058" height="149.503" fill="white"/>
</clipPath>
</defs>
</svg>
