<svg width="18" height="19" viewBox="0 0 18 19" fill="none" xmlns="http://www.w3.org/2000/svg">
<path d="M16 9.95001C16 8.00001 15.3207 6.34568 13.962 4.98701C12.604 3.62901 10.95 2.95001 9 2.95001V0.950012C10.25 0.950012 11.421 1.18735 12.513 1.66201C13.6043 2.13735 14.5543 2.77935 15.363 3.58801C16.171 4.39601 16.8127 5.34601 17.288 6.43801C17.7627 7.52935 18 8.70001 18 9.95001H16ZM12 9.95001C12 9.11668 11.7083 8.40835 11.125 7.82501C10.5417 7.24168 9.83333 6.95001 9 6.95001V4.95001C10.3833 4.95001 11.5627 5.43735 12.538 6.41201C13.5127 7.38735 14 8.56668 14 9.95001H12ZM16.95 19C14.8 19 12.7043 18.525 10.663 17.575C8.621 16.625 6.81267 15.3583 5.238 13.775C3.66267 12.1917 2.396 10.379 1.438 8.33701C0.479334 6.29568 0 4.20001 0 2.05001V1.52501C0 1.34168 0.0166666 1.16668 0.05 1.00001H5.9L6.825 6.02501L3.975 8.90001C4.675 10.1 5.55433 11.225 6.613 12.275C7.671 13.325 8.83333 14.2333 10.1 15L13 12.1L18 13.1V18.95C17.8333 18.9667 17.6583 18.9793 17.475 18.988C17.2917 18.996 17.1167 19 16.95 19Z" fill="#884D2B"/>
</svg>
